<svg width="500" height="500" viewBox="0 0 500 500" fill="none" xmlns="http://www.w3.org/2000/svg">
<path d="M77.2503 246.065C64.4133 246.065 53.2812 243.157 43.854 237.34C34.4269 231.524 27.1057 222.498 21.8907 210.262C16.8762 198.027 14.369 182.282 14.369 163.026C14.369 143.971 16.9765 128.426 22.1916 116.392C27.4066 104.156 34.6274 95.1303 43.854 89.3135C53.0806 83.4967 63.5107 80.5884 75.1443 80.5884C82.3651 80.5884 88.9842 81.3907 95.0015 82.9953C101.019 84.5999 106.334 87.1072 110.947 90.517C115.561 93.7263 119.472 97.7378 122.681 102.552H124.487V24.9279H161.192V242.455H130.805L127.796 221.394H125.69C120.676 229.618 113.856 235.836 105.231 240.048C96.8067 244.06 87.4798 246.065 77.2503 246.065ZM88.6833 214.474C97.1076 214.474 103.927 212.569 109.142 208.758C114.357 204.947 118.168 199.431 120.575 192.21C123.183 184.989 124.487 176.164 124.487 165.734V161.823C124.487 154 123.785 146.98 122.38 140.762C120.976 134.544 118.77 129.329 115.761 125.117C112.953 120.905 109.243 117.695 104.629 115.489C100.217 113.283 94.9012 112.179 88.6833 112.179C79.6573 112.179 72.4364 113.985 67.0208 117.595C61.8058 121.005 57.9948 126.421 55.5879 133.842C53.3815 141.063 52.2783 150.289 52.2783 161.522V165.734C52.2783 176.766 53.3815 185.892 55.5879 193.113C57.9948 200.334 61.8058 205.749 67.0208 209.36C72.4364 212.769 79.6573 214.474 88.6833 214.474Z" fill="#2C2E3C"/>
<path d="M77.2503 246.065C64.4133 246.065 53.2812 243.157 43.854 237.34C34.4269 231.524 27.1057 222.498 21.8907 210.262C16.8762 198.027 14.369 182.282 14.369 163.026C14.369 143.971 16.9765 128.426 22.1916 116.392C27.4066 104.156 34.6274 95.1303 43.854 89.3135C53.0806 83.4967 63.5107 80.5884 75.1443 80.5884C82.3651 80.5884 88.9842 81.3907 95.0015 82.9953C101.019 84.5999 106.334 87.1072 110.947 90.517C115.561 93.7263 119.472 97.7378 122.681 102.552H124.487V24.9279H161.192V242.455H130.805L127.796 221.394H125.69C120.676 229.618 113.856 235.836 105.231 240.048C96.8067 244.06 87.4798 246.065 77.2503 246.065ZM88.6833 214.474C97.1076 214.474 103.927 212.569 109.142 208.758C114.357 204.947 118.168 199.431 120.575 192.21C123.183 184.989 124.487 176.164 124.487 165.734V161.823C124.487 154 123.785 146.98 122.38 140.762C120.976 134.544 118.77 129.329 115.761 125.117C112.953 120.905 109.243 117.695 104.629 115.489C100.217 113.283 94.9012 112.179 88.6833 112.179C79.6573 112.179 72.4364 113.985 67.0208 117.595C61.8058 121.005 57.9948 126.421 55.5879 133.842C53.3815 141.063 52.2783 150.289 52.2783 161.522V165.734C52.2783 176.766 53.3815 185.892 55.5879 193.113C57.9948 200.334 61.8058 205.749 67.0208 209.36C72.4364 212.769 79.6573 214.474 88.6833 214.474Z" fill="url(#paint0_linear_1_13)"/>
<path d="M253.197 246.065C236.348 246.065 222.308 243.157 211.075 237.34C199.843 231.323 191.419 222.197 185.802 209.961C180.186 197.726 177.378 182.181 177.378 163.327C177.378 144.272 180.186 128.727 185.802 116.692C191.419 104.457 199.843 95.4312 211.075 89.6144C222.308 83.597 236.348 80.5884 253.197 80.5884C268.441 80.5884 281.177 83.4967 291.407 89.3135C301.837 94.9297 309.66 103.655 314.875 115.489C320.09 127.323 322.697 142.667 322.697 161.522V172.353H214.987C215.388 182.181 216.892 190.505 219.5 197.325C222.107 203.944 226.119 208.958 231.534 212.368C237.15 215.578 244.472 217.182 253.498 217.182C258.111 217.182 262.423 216.58 266.435 215.377C270.446 214.174 273.957 212.368 276.965 209.961C279.974 207.354 282.281 204.145 283.885 200.334C285.69 196.523 286.593 192.11 286.593 187.095H322.697C322.697 197.124 320.892 205.85 317.281 213.271C313.872 220.692 308.957 226.81 302.539 231.624C296.321 236.438 289 240.048 280.576 242.455C272.151 244.862 263.025 246.065 253.197 246.065ZM215.588 146.478H284.487C284.487 139.859 283.685 134.243 282.08 129.63C280.676 125.016 278.57 121.205 275.762 118.197C273.154 115.188 269.945 113.082 266.134 111.879C262.323 110.475 258.011 109.773 253.197 109.773C245.374 109.773 238.755 111.076 233.339 113.684C228.124 116.291 224.113 120.303 221.305 125.718C218.497 131.134 216.591 138.054 215.588 146.478Z" fill="#2C2E3C"/>
<path d="M253.197 246.065C236.348 246.065 222.308 243.157 211.075 237.34C199.843 231.323 191.419 222.197 185.802 209.961C180.186 197.726 177.378 182.181 177.378 163.327C177.378 144.272 180.186 128.727 185.802 116.692C191.419 104.457 199.843 95.4312 211.075 89.6144C222.308 83.597 236.348 80.5884 253.197 80.5884C268.441 80.5884 281.177 83.4967 291.407 89.3135C301.837 94.9297 309.66 103.655 314.875 115.489C320.09 127.323 322.697 142.667 322.697 161.522V172.353H214.987C215.388 182.181 216.892 190.505 219.5 197.325C222.107 203.944 226.119 208.958 231.534 212.368C237.15 215.578 244.472 217.182 253.498 217.182C258.111 217.182 262.423 216.58 266.435 215.377C270.446 214.174 273.957 212.368 276.965 209.961C279.974 207.354 282.281 204.145 283.885 200.334C285.69 196.523 286.593 192.11 286.593 187.095H322.697C322.697 197.124 320.892 205.85 317.281 213.271C313.872 220.692 308.957 226.81 302.539 231.624C296.321 236.438 289 240.048 280.576 242.455C272.151 244.862 263.025 246.065 253.197 246.065ZM215.588 146.478H284.487C284.487 139.859 283.685 134.243 282.08 129.63C280.676 125.016 278.57 121.205 275.762 118.197C273.154 115.188 269.945 113.082 266.134 111.879C262.323 110.475 258.011 109.773 253.197 109.773C245.374 109.773 238.755 111.076 233.339 113.684C228.124 116.291 224.113 120.303 221.305 125.718C218.497 131.134 216.591 138.054 215.588 146.478Z" fill="url(#paint1_linear_1_13)"/>
<path d="M338.808 294.505V84.1988H369.195L372.204 105.259H374.31C379.525 97.0358 386.345 90.9182 394.769 86.9066C403.193 82.6944 412.52 80.5884 422.75 80.5884C435.787 80.5884 446.919 83.4967 456.146 89.3135C465.573 95.1303 472.794 104.156 477.808 116.392C483.023 128.627 485.631 144.372 485.631 163.628C485.631 182.482 483.023 198.027 477.808 210.262C472.593 222.498 465.373 231.524 456.146 237.34C447.12 243.157 436.69 246.065 424.856 246.065C417.635 246.065 411.016 245.263 404.998 243.659C398.981 242.054 393.666 239.647 389.052 236.438C384.439 233.028 380.528 228.916 377.319 224.102H375.513V294.505H338.808ZM411.317 214.474C420.343 214.474 427.463 212.769 432.678 209.36C438.094 205.749 441.905 200.334 444.111 193.113C446.518 185.892 447.722 176.766 447.722 165.734V161.522C447.722 150.289 446.518 141.063 444.111 133.842C441.905 126.421 438.094 121.005 432.678 117.595C427.463 113.985 420.343 112.179 411.317 112.179C403.093 112.179 396.273 114.085 390.858 117.896C385.643 121.707 381.731 127.323 379.124 134.745C376.717 141.965 375.513 150.891 375.513 161.522V165.132C375.513 172.955 376.215 179.975 377.62 186.193C379.024 192.21 381.13 197.325 383.938 201.537C386.946 205.749 390.657 208.959 395.07 211.165C399.683 213.371 405.099 214.474 411.317 214.474Z" fill="#2C2E3C"/>
<path d="M338.808 294.505V84.1988H369.195L372.204 105.259H374.31C379.525 97.0358 386.345 90.9182 394.769 86.9066C403.193 82.6944 412.52 80.5884 422.75 80.5884C435.787 80.5884 446.919 83.4967 456.146 89.3135C465.573 95.1303 472.794 104.156 477.808 116.392C483.023 128.627 485.631 144.372 485.631 163.628C485.631 182.482 483.023 198.027 477.808 210.262C472.593 222.498 465.373 231.524 456.146 237.34C447.12 243.157 436.69 246.065 424.856 246.065C417.635 246.065 411.016 245.263 404.998 243.659C398.981 242.054 393.666 239.647 389.052 236.438C384.439 233.028 380.528 228.916 377.319 224.102H375.513V294.505H338.808ZM411.317 214.474C420.343 214.474 427.463 212.769 432.678 209.36C438.094 205.749 441.905 200.334 444.111 193.113C446.518 185.892 447.722 176.766 447.722 165.734V161.522C447.722 150.289 446.518 141.063 444.111 133.842C441.905 126.421 438.094 121.005 432.678 117.595C427.463 113.985 420.343 112.179 411.317 112.179C403.093 112.179 396.273 114.085 390.858 117.896C385.643 121.707 381.731 127.323 379.124 134.745C376.717 141.965 375.513 150.891 375.513 161.522V165.132C375.513 172.955 376.215 179.975 377.62 186.193C379.024 192.21 381.13 197.325 383.938 201.537C386.946 205.749 390.657 208.959 395.07 211.165C399.683 213.371 405.099 214.474 411.317 214.474Z" fill="url(#paint2_linear_1_13)"/>
<path d="M14.369 471.462V313.205H45.0575L48.0662 338.177H50.1723C52.1781 333.163 54.585 328.55 57.3931 324.338C60.4018 319.925 64.2127 316.415 68.826 313.807C73.4393 310.999 79.0555 309.595 85.6746 309.595C88.8839 309.595 91.7923 309.896 94.3998 310.498C97.2079 311.099 99.3139 311.701 100.718 312.303V346.903H89.5859C83.368 346.903 77.8521 347.805 73.0382 349.61C68.2243 351.215 64.1125 353.823 60.7026 357.433C57.4934 361.043 55.0864 365.556 53.4818 370.972C51.8772 376.388 51.0749 382.706 51.0749 389.927V471.462H14.369Z" fill="#2C2E3C"/>
<path d="M14.369 471.462V313.205H45.0575L48.0662 338.177H50.1723C52.1781 333.163 54.585 328.55 57.3931 324.338C60.4018 319.925 64.2127 316.415 68.826 313.807C73.4393 310.999 79.0555 309.595 85.6746 309.595C88.8839 309.595 91.7923 309.896 94.3998 310.498C97.2079 311.099 99.3139 311.701 100.718 312.303V346.903H89.5859C83.368 346.903 77.8521 347.805 73.0382 349.61C68.2243 351.215 64.1125 353.823 60.7026 357.433C57.4934 361.043 55.0864 365.556 53.4818 370.972C51.8772 376.388 51.0749 382.706 51.0749 389.927V471.462H14.369Z" fill="url(#paint3_linear_1_13)"/>
<path d="M173.389 475.072C156.541 475.072 142.5 472.164 131.268 466.347C120.035 460.33 111.611 451.203 105.995 438.968C100.379 426.733 97.5706 411.188 97.5706 392.334C97.5706 373.279 100.379 357.734 105.995 345.699C111.611 333.464 120.035 324.438 131.268 318.621C142.5 312.604 156.541 309.595 173.389 309.595C188.633 309.595 201.37 312.503 211.599 318.32C222.03 323.936 229.852 332.662 235.067 344.496C240.282 356.33 242.89 371.674 242.89 390.528V401.36H135.179C135.58 411.188 137.085 419.512 139.692 426.332C142.3 432.951 146.311 437.965 151.727 441.375C157.343 444.584 164.664 446.189 173.69 446.189C178.303 446.189 182.616 445.587 186.627 444.384C190.639 443.18 194.149 441.375 197.158 438.968C200.166 436.361 202.473 433.151 204.078 429.34C205.883 425.529 206.786 421.117 206.786 416.102H242.89C242.89 426.131 241.084 434.856 237.474 442.278C234.064 449.699 229.15 455.817 222.732 460.631C216.514 465.444 209.192 469.055 200.768 471.462C192.344 473.869 183.218 475.072 173.389 475.072ZM135.781 375.485H204.679C204.679 368.866 203.877 363.25 202.273 358.636C200.869 354.023 198.762 350.212 195.954 347.203C193.347 344.195 190.138 342.089 186.327 340.885C182.516 339.481 178.203 338.779 173.389 338.779C165.567 338.779 158.948 340.083 153.532 342.69C148.317 345.298 144.305 349.31 141.497 354.725C138.689 360.141 136.784 367.061 135.781 375.485Z" fill="#2C2E3C"/>
<path d="M173.389 475.072C156.541 475.072 142.5 472.164 131.268 466.347C120.035 460.33 111.611 451.203 105.995 438.968C100.379 426.733 97.5706 411.188 97.5706 392.334C97.5706 373.279 100.379 357.734 105.995 345.699C111.611 333.464 120.035 324.438 131.268 318.621C142.5 312.604 156.541 309.595 173.389 309.595C188.633 309.595 201.37 312.503 211.599 318.32C222.03 323.936 229.852 332.662 235.067 344.496C240.282 356.33 242.89 371.674 242.89 390.528V401.36H135.179C135.58 411.188 137.085 419.512 139.692 426.332C142.3 432.951 146.311 437.965 151.727 441.375C157.343 444.584 164.664 446.189 173.69 446.189C178.303 446.189 182.616 445.587 186.627 444.384C190.639 443.18 194.149 441.375 197.158 438.968C200.166 436.361 202.473 433.151 204.078 429.34C205.883 425.529 206.786 421.117 206.786 416.102H242.89C242.89 426.131 241.084 434.856 237.474 442.278C234.064 449.699 229.15 455.817 222.732 460.631C216.514 465.444 209.192 469.055 200.768 471.462C192.344 473.869 183.218 475.072 173.389 475.072ZM135.781 375.485H204.679C204.679 368.866 203.877 363.25 202.273 358.636C200.869 354.023 198.762 350.212 195.954 347.203C193.347 344.195 190.138 342.089 186.327 340.885C182.516 339.481 178.203 338.779 173.389 338.779C165.567 338.779 158.948 340.083 153.532 342.69C148.317 345.298 144.305 349.31 141.497 354.725C138.689 360.141 136.784 367.061 135.781 375.485Z" fill="url(#paint4_linear_1_13)"/>
<path d="M259 471.462V313.205H289.689L292.697 334.266H294.803C298.213 329.452 302.124 325.24 306.537 321.63C310.95 317.819 315.964 314.91 321.581 312.905C327.397 310.698 333.716 309.595 340.535 309.595C349.762 309.595 357.986 311.501 365.206 315.311C372.427 319.122 378.043 325.441 382.055 334.266H384.161C387.571 329.452 391.582 325.24 396.196 321.63C400.809 317.819 406.124 314.91 412.142 312.905C418.159 310.698 424.678 309.595 431.698 309.595C441.125 309.595 449.449 311.3 456.67 314.71C463.891 318.12 469.607 323.736 473.82 331.558C478.032 339.381 480.138 349.811 480.138 362.849V471.462H443.432V370.37C443.432 364.955 442.83 360.442 441.627 356.831C440.423 353.02 438.718 350.112 436.512 348.106C434.506 345.9 431.899 344.295 428.689 343.292C425.681 342.289 422.371 341.788 418.761 341.788C412.944 341.788 407.729 343.392 403.116 346.602C398.502 349.811 394.792 354.224 391.984 359.84C389.376 365.456 388.072 371.975 388.072 379.396V471.462H351.366V370.37C351.366 364.955 350.765 360.442 349.561 356.831C348.358 353.02 346.653 350.112 344.447 348.106C342.441 345.9 339.833 344.295 336.624 343.292C333.615 342.289 330.306 341.788 326.695 341.788C320.879 341.788 315.563 343.392 310.749 346.602C306.136 349.811 302.425 354.224 299.617 359.84C297.01 365.456 295.706 371.975 295.706 379.396V471.462H259Z" fill="#2C2E3C"/>
<path d="M259 471.462V313.205H289.689L292.697 334.266H294.803C298.213 329.452 302.124 325.24 306.537 321.63C310.95 317.819 315.964 314.91 321.581 312.905C327.397 310.698 333.716 309.595 340.535 309.595C349.762 309.595 357.986 311.501 365.206 315.311C372.427 319.122 378.043 325.441 382.055 334.266H384.161C387.571 329.452 391.582 325.24 396.196 321.63C400.809 317.819 406.124 314.91 412.142 312.905C418.159 310.698 424.678 309.595 431.698 309.595C441.125 309.595 449.449 311.3 456.67 314.71C463.891 318.12 469.607 323.736 473.82 331.558C478.032 339.381 480.138 349.811 480.138 362.849V471.462H443.432V370.37C443.432 364.955 442.83 360.442 441.627 356.831C440.423 353.02 438.718 350.112 436.512 348.106C434.506 345.9 431.899 344.295 428.689 343.292C425.681 342.289 422.371 341.788 418.761 341.788C412.944 341.788 407.729 343.392 403.116 346.602C398.502 349.811 394.792 354.224 391.984 359.84C389.376 365.456 388.072 371.975 388.072 379.396V471.462H351.366V370.37C351.366 364.955 350.765 360.442 349.561 356.831C348.358 353.02 346.653 350.112 344.447 348.106C342.441 345.9 339.833 344.295 336.624 343.292C333.615 342.289 330.306 341.788 326.695 341.788C320.879 341.788 315.563 343.392 310.749 346.602C306.136 349.811 302.425 354.224 299.617 359.84C297.01 365.456 295.706 371.975 295.706 379.396V471.462H259Z" fill="url(#paint5_linear_1_13)"/>
<defs>
<linearGradient id="paint0_linear_1_13" x1="144.315" y1="149.287" x2="645.385" y2="307.276" gradientUnits="userSpaceOnUse">
<stop stop-color="#FF5761"/>
<stop offset="1" stop-color="#4765FF"/>
</linearGradient>
<linearGradient id="paint1_linear_1_13" x1="144.315" y1="149.287" x2="645.385" y2="307.276" gradientUnits="userSpaceOnUse">
<stop stop-color="#FF5761"/>
<stop offset="1" stop-color="#4765FF"/>
</linearGradient>
<linearGradient id="paint2_linear_1_13" x1="144.315" y1="149.287" x2="645.385" y2="307.276" gradientUnits="userSpaceOnUse">
<stop stop-color="#FF5761"/>
<stop offset="1" stop-color="#4765FF"/>
</linearGradient>
<linearGradient id="paint3_linear_1_13" x1="144.315" y1="149.287" x2="645.385" y2="307.276" gradientUnits="userSpaceOnUse">
<stop stop-color="#FF5761"/>
<stop offset="1" stop-color="#4765FF"/>
</linearGradient>
<linearGradient id="paint4_linear_1_13" x1="144.315" y1="149.287" x2="645.385" y2="307.276" gradientUnits="userSpaceOnUse">
<stop stop-color="#FF5761"/>
<stop offset="1" stop-color="#4765FF"/>
</linearGradient>
<linearGradient id="paint5_linear_1_13" x1="144.315" y1="149.287" x2="645.385" y2="307.276" gradientUnits="userSpaceOnUse">
<stop stop-color="#FF5761"/>
<stop offset="1" stop-color="#4765FF"/>
</linearGradient>
</defs>
</svg>
